<?xml version="1.0" encoding="utf-8"?>
<!-- Generator: Adobe Illustrator 28.1.0, SVG Export Plug-In . SVG Version: 6.00 Build 0)  -->
<svg version="1.1" id="Layer_1" xmlns="http://www.w3.org/2000/svg" xmlns:xlink="http://www.w3.org/1999/xlink" x="0px" y="0px"
	 viewBox="0 0 1200 1330" style="enable-background:new 0 0 1200 1330;" xml:space="preserve">
<style type="text/css">
	.st0{fill:#0556AF;}
	.st1{fill:#FFFFFF;}
	.st2{font-family:'Rubik-Regular';}
	.st3{font-size:20px;}
	.st4{font-family:'Rubik-Medium';}
	.st5{fill:#FFBA00;}
	.st6{font-family:'Rubik-SemiBold';}
	.st7{fill:none;stroke:#0556AF;stroke-width:3;stroke-miterlimit:10;}
</style>
<g>
	<g id="Penanggung_Jawab">
		<path class="st0" d="M763.67,144.53H436.33c-14.82,0-26.83-12.01-26.83-26.83V66.36c0-14.82,12.01-26.83,26.83-26.83h327.35
			c14.82,0,26.83,12.01,26.83,26.83v51.35C790.5,132.52,778.49,144.53,763.67,144.53z"/>
		<g id="Nama">
			<text transform="matrix(1 0 0 1 509.0212 67.048)" class="st1 st2 st3">Penanggung Jawab</text>
			<text transform="matrix(1 0 0 1 470.3818 100.5743)" class="st1 st4 st3">Ari Pambudi, S.Kom, M.Kom</text>
			<text transform="matrix(1 0 0 1 431.4824 128.5743)" class="st1 st2 st3">Wakil Rektor Bidang Kemahasiswaan</text>
		</g>
	</g>
	<g id="Penanggung_Jawab_00000142142413412813629930000006882798121946653362_">
		<path class="st0" d="M683.35,332.48H516.65c-7.26,0-13.14-5.88-13.14-13.14v-23.48c0-7.26,5.88-13.14,13.14-13.14h166.69
			c7.26,0,13.14,5.88,13.14,13.14v23.48C696.49,326.59,690.6,332.48,683.35,332.48z"/>
		<g id="Nama_00000067927223950649216490000014387018419639508662_">
			<g>
				<text transform="matrix(1 0 0 1 512.1609 313.3752)" class="st5 st6 st3">Tim Operator PKM</text>
			</g>
		</g>
	</g>
	<g>
		<g id="Penanggung_Jawab_00000155862610878167625100000012147429541545443231_">
			<path class="st0" d="M354.17,360.1H26.83C12.01,360.1,0,348.08,0,333.27v-51.35c0-14.82,12.01-26.83,26.83-26.83h327.35
				c14.82,0,26.83,12.01,26.83,26.83v51.35C381,348.08,368.99,360.1,354.17,360.1z"/>
			<g id="Nama_00000093895592020488809920000001186562432648331191_">
				<text transform="matrix(1 0 0 1 149.6409 282.6121)" class="st1 st2 st3">Pembina</text>
				<text transform="matrix(1 0 0 1 72.4622 316.1384)" class="st1 st4 st3">Idris B. Kamad, Adm.Kes.</text>
				<text transform="matrix(1 0 0 1 61.542 344.1384)" class="st1 st2 st3">Kepala Biro Kemahasiswaan</text>
			</g>
		</g>
		<g id="Penanggung_Jawab_00000045611279962966761150000017806286006211893897_">
			<path class="st0" d="M1171.95,360.1H811.62c-15.49,0-28.05-12.56-28.05-28.05v-48.91c0-15.49,12.56-28.05,28.05-28.05h360.34
				c15.49,0,28.05,12.56,28.05,28.05v48.91C1200,347.54,1187.44,360.1,1171.95,360.1z"/>
			<g id="Nama_00000119834444380017719290000015046377625928966030_">
				<text transform="matrix(1 0 0 1 936.9764 282.6121)" class="st1 st2 st3">Koordinator</text>
				<text transform="matrix(1 0 0 1 883.9573 316.1384)" class="st1 st4 st3">Rahmadadi, S.E., M.Ak.</text>
				<text transform="matrix(1 0 0 1 799.1087 344.1384)" class="st1 st2 st3">Kabag Prestasi dan Kreatifitas Mahasiswa</text>
			</g>
		</g>
	</g>
	<g>
		<line class="st7" x1="600" y1="142" x2="600" y2="266.5"/>
		<polygon class="st0" points="600,270.72 604.54,262.86 609.08,255 600,255 590.92,255 595.46,262.86 		"/>
	</g>
	<g>
		<polygon class="st0" points="489.86,307.6 482,303.06 474.14,298.52 474.14,307.6 474.14,316.67 482,312.13 		"/>
		<line class="st7" x1="362" y1="307.6" x2="482" y2="307.6"/>
	</g>
	<g>
		<polygon class="st0" points="710,307.6 717.86,303.06 725.72,298.52 725.72,307.6 725.72,316.67 717.86,312.13 		"/>
		<line class="st7" x1="837.86" y1="307.6" x2="717.86" y2="307.6"/>
	</g>
	<line class="st7" x1="600" y1="331" x2="600" y2="1102.5"/>
	<g>
		<g id="Penanggung_Jawab_00000014599554659592816830000014570010123406197429_">
			<path class="st0" d="M484.44,708.95H308.56c-11.16,0-20.21-9.05-20.21-20.21v-64.57c0-11.16,9.05-20.21,20.21-20.21h175.87
				c11.16,0,20.21,9.05,20.21,20.21v64.57C504.65,699.9,495.6,708.95,484.44,708.95z"/>
			<g id="Nama_00000118388562700048968570000013389092963268774828_">
				<text transform="matrix(1 0 0 1 311.8418 633.3736)" class="st5 st6 st3">Fasiliator PKM-AI</text>
				<text transform="matrix(1 0 0 1 316.5818 666.9)"><tspan x="0" y="0" class="st1 st2 st3">Firmansyah Katili</tspan><tspan x="31.91" y="24" class="st1 st2 st3">Azka Aulia</tspan></text>
			</g>
		</g>
		<g id="Penanggung_Jawab_00000137118007778445059710000017225162721611856564_">
			<path class="st0" d="M484.44,856.2H308.56c-11.16,0-20.21-9.05-20.21-20.21v-64.57c0-11.16,9.05-20.21,20.21-20.21h175.87
				c11.16,0,20.21,9.05,20.21,20.21v64.57C504.65,847.15,495.6,856.2,484.44,856.2z"/>
			<g id="Nama_00000075875791792319207120000010182385992398395046_">
				<text transform="matrix(1 0 0 1 302.6323 780.6236)" class="st5 st6 st3">Fasiliator PKM-GFT</text>
				<text transform="matrix(1 0 0 1 316.5515 814.15)" class="st1 st2 st3">Muhammad Faris</text>
			</g>
		</g>
		<g id="Penanggung_Jawab_00000026123918082561645930000000755468277698122922_">
			<path class="st0" d="M484.44,1156.53H308.56c-11.16,0-20.21-9.05-20.21-20.21v-64.57c0-11.16,9.05-20.21,20.21-20.21h175.87
				c11.16,0,20.21,9.05,20.21,20.21v64.57C504.65,1147.48,495.6,1156.53,484.44,1156.53z"/>
			<g id="Nama_00000021086669525352118240000001593074266450610619_">
				<text transform="matrix(1 0 0 1 315.522 1080.957)" class="st5 st6 st3">Fasiliator PKM-K</text>
				<text transform="matrix(1 0 0 1 336.2913 1114.4833)" class="st1 st2 st3">Nuruzzahroh</text>
			</g>
		</g>
		<g id="Penanggung_Jawab_00000083089697177256071230000014460990387783231658_">
			<path class="st0" d="M484.44,551.36H308.56c-11.16,0-20.21-9.05-20.21-20.21v-64.57c0-11.16,9.05-20.21,20.21-20.21h175.87
				c11.16,0,20.21,9.05,20.21,20.21v64.57C504.65,542.31,495.6,551.36,484.44,551.36z"/>
			<g id="Nama_00000077307036358505775910000007666660078536085123_">
				<text transform="matrix(1 0 0 1 347.3813 475.7903)"><tspan x="0" y="0" class="st5 st6 st3">Ketua Tim</tspan><tspan x="-18.51" y="24" class="st5 st6 st3">Operator PKM</tspan></text>
				<text transform="matrix(1 0 0 1 347.0813 528.3167)" class="st1 st2 st3">Erik Wijaya</text>
			</g>
		</g>
		<g id="Penanggung_Jawab_00000169540626926453829970000004988339889907550867_">
			<path class="st0" d="M484.44,1005.45H308.56c-11.16,0-20.21-9.05-20.21-20.21v-64.57c0-11.16,9.05-20.21,20.21-20.21h175.87
				c11.16,0,20.21,9.05,20.21,20.21v64.57C504.65,996.4,495.6,1005.45,484.44,1005.45z"/>
			<g id="Nama_00000159455191475196776270000006780593149921767359_">
				<text transform="matrix(1 0 0 1 308.8721 929.8736)" class="st5 st6 st3">Fasiliator PKM-RE</text>
				<text transform="matrix(1 0 0 1 345.5413 963.4)" class="st1 st2 st3">Nayla Putri</text>
			</g>
		</g>
		<g id="Penanggung_Jawab_00000095327328868951411950000011395008104308095668_">
			<path class="st0" d="M891.44,1156.53H715.56c-11.16,0-20.21-9.05-20.21-20.21v-64.57c0-11.16,9.05-20.21,20.21-20.21h175.87
				c11.16,0,20.21,9.05,20.21,20.21v64.57C911.65,1147.48,902.6,1156.53,891.44,1156.53z"/>
			<g id="Nama_00000121277663542412705230000010005236732809370795_">
				<text transform="matrix(1 0 0 1 708.2817 1080.957)" class="st5 st6 st3">Fasiliator PKM-RSH</text>
				<text transform="matrix(1 0 0 1 780.6008 1114.4833)"><tspan x="0" y="0" class="st1 st2 st3">Zikry</tspan><tspan x="-7.1" y="24" class="st1 st2 st3">Nanda</tspan></text>
			</g>
		</g>
		<g id="Penanggung_Jawab_00000070820771994287956390000015398641527908634505_">
			<path class="st0" d="M891.44,551.36H715.56c-11.16,0-20.21-9.05-20.21-20.21v-64.57c0-11.16,9.05-20.21,20.21-20.21h175.87
				c11.16,0,20.21,9.05,20.21,20.21v64.57C911.65,542.31,902.6,551.36,891.44,551.36z"/>
			<g id="Nama_00000034052737161715985560000004513335064095028115_">
				<text transform="matrix(1 0 0 1 714.1318 475.7903)" class="st5 st6 st3">Fasiliator PKM-PM</text>
				<text transform="matrix(1 0 0 1 780.4807 509.3167)" class="st1 st2 st3">Adila</text>
			</g>
		</g>
		<g id="Penanggung_Jawab_00000175282347963773294670000016984038644211390119_">
			<path class="st0" d="M891.44,856.2H715.56c-11.16,0-20.21-9.05-20.21-20.21v-64.57c0-11.16,9.05-20.21,20.21-20.21h175.87
				c11.16,0,20.21,9.05,20.21,20.21v64.57C911.65,847.15,902.6,856.2,891.44,856.2z"/>
			<g id="Nama_00000009554577339665216740000018216986145608062908_">
				<text transform="matrix(1 0 0 1 719.2119 780.6235)" class="st5 st6 st3">Fasiliator PKM-PI</text>
				<text transform="matrix(1 0 0 1 774.261 814.1499)" class="st1 st2 st3">Rosita</text>
			</g>
		</g>
		<g id="Penanggung_Jawab_00000096024077737585311480000001738722409735528627_">
			<path class="st0" d="M891.44,1005.45H715.56c-11.16,0-20.21-9.05-20.21-20.21v-64.57c0-11.16,9.05-20.21,20.21-20.21h175.87
				c11.16,0,20.21,9.05,20.21,20.21v64.57C911.65,996.4,902.6,1005.45,891.44,1005.45z"/>
			<g id="Nama_00000067233658968545674360000000389709554382012607_">
				<text transform="matrix(1 0 0 1 708.5923 929.8736)" class="st5 st6 st3">Fasiliator PKM-VGK</text>
				<text transform="matrix(1 0 0 1 764.781 963.4)" class="st1 st2 st3">Nurliana</text>
			</g>
		</g>
		<g id="Penanggung_Jawab_00000082337534624632599440000012607086074467411633_">
			<path class="st0" d="M891.44,708.95H715.56c-11.16,0-20.21-9.05-20.21-20.21v-64.57c0-11.16,9.05-20.21,20.21-20.21h175.87
				c11.16,0,20.21,9.05,20.21,20.21v64.57C911.65,699.9,902.6,708.95,891.44,708.95z"/>
			<g id="Nama_00000178891944512710688850000003932054749470484910_">
				<g>
					<text transform="matrix(1 0 0 1 757.3208 634.4634)"><tspan x="0" y="0" class="st0 st6 st3">Fasiliator</tspan><tspan x="-14.64" y="24" class="st0 st6 st3">PKM-KC &amp; KI</tspan></text>
					<text transform="matrix(1 0 0 1 773.4807 689.9898)" class="st0 st2 st3">Aditya</text>
				</g>
				<g>
					<text transform="matrix(1 0 0 1 757.3208 634.4634)"><tspan x="0" y="0" class="st5 st6 st3">Fasiliator</tspan><tspan x="-14.64" y="24" class="st5 st6 st3">PKM-KC &amp; KI</tspan></text>
					<text transform="matrix(1 0 0 1 773.4807 689.9898)" class="st1 st2 st3">Aditya</text>
				</g>
			</g>
		</g>
		<line class="st7" x1="494.65" y1="1104.03" x2="734.65" y2="1104.03"/>
		<line class="st7" x1="492.65" y1="952.95" x2="732.65" y2="952.95"/>
		<line class="st7" x1="487.65" y1="803.7" x2="727.65" y2="803.7"/>
		<line class="st7" x1="500.65" y1="656.45" x2="740.65" y2="656.45"/>
		<line class="st7" x1="499.15" y1="498.86" x2="706.5" y2="498.86"/>
	</g>
</g>
</svg>
