<?xml version="1.0" encoding="utf-8"?>
<!-- Generator: Adobe Illustrator 28.1.0, SVG Export Plug-In . SVG Version: 6.00 Build 0)  -->
<svg version="1.1" xmlns="http://www.w3.org/2000/svg" xmlns:xlink="http://www.w3.org/1999/xlink" x="0px" y="0px"
	 viewBox="0 0 1080 1080" style="enable-background:new 0 0 1080 1080;" xml:space="preserve">
<style type="text/css">
	.st0{display:none;}
	.st1{display:inline;}
	.st2{fill:#D3D3D3;}
	.st3{fill:#2D2D2D;}
	.st4{fill:none;stroke:#0556AF;stroke-width:60;stroke-linecap:round;stroke-miterlimit:10;}
	.st5{fill:#0556AF;}
	.st6{fill:none;stroke:#FFFFFF;stroke-width:60;stroke-linecap:round;stroke-miterlimit:10;}
	.st7{fill:#FFFFFF;}
</style>
<g id="Profile" class="st0">
	<g id="Profile_Abu_tua_00000182506687390113123820000006579398798526482075_" class="st1">
		<circle class="st2" cx="540" cy="539.41" r="539.5"/>
		<circle class="st3" cx="540" cy="375.59" r="202"/>
		<path class="st3" d="M123.15,883.09c98.95,120.28,248.94,196.99,416.85,196.99c168.91,0,319.68-77.63,418.61-199.15
			C894.92,712.42,732.1,592.59,541.28,592.59C349.66,592.59,186.26,713.45,123.15,883.09z"/>
	</g>
	<g id="Profile_Abu_tua_00000129190593691900091540000014349615622837666472_" class="st1">
		<circle class="st3" cx="540" cy="539.41" r="539.5"/>
		<circle class="st2" cx="540" cy="375.59" r="202"/>
		<path class="st2" d="M123.15,883.09c98.95,120.28,248.94,196.99,416.85,196.99c168.91,0,319.68-77.63,418.61-199.15
			C894.92,712.42,732.1,592.59,541.28,592.59C349.66,592.59,186.26,713.45,123.15,883.09z"/>
	</g>
</g>
<g id="Log_Out">
	<g>
		<path class="st4" d="M740.56,648v234.78c0,48.23-39.1,87.33-87.33,87.33H118.35c-48.23,0-87.33-39.1-87.33-87.33V118.63
			c0-48.23,39.1-87.33,87.33-87.33h534.88c48.23,0,87.33,39.1,87.33,87.33V351"/>
		<path class="st5" d="M422.5,1077.79l-333-81.8C48.92,986.02,16,945.56,16,905.63V86.78c0-39.93,32.93-63.8,73.51-53.32l333,86
			c40.18,10.38,72.73,50.95,72.73,90.63v813.71C495.23,1063.49,462.69,1087.66,422.5,1077.79z"/>
		<path class="st5" d="M1041.84,481.46l-92.24-55.13l-92.24-55.13c-12.22-7.3-27.39,1.99-27.32,16.73l0.32,62.55H632.58
			c-14.13,0-25.58,11.45-25.58,25.58v46.1c0,14.13,11.45,25.58,25.58,25.58h198.27l0.32,62.75c0.07,14.74,15.34,23.86,27.49,16.43
			l91.68-56.15l91.68-56.15C1054.15,507.18,1054.06,488.76,1041.84,481.46z"/>
	</g>
	<g>
		<path class="st6" d="M740.56,648v234.78c0,48.23-39.1,87.33-87.33,87.33H118.35c-48.23,0-87.33-39.1-87.33-87.33V118.63
			c0-48.23,39.1-87.33,87.33-87.33h534.88c48.23,0,87.33,39.1,87.33,87.33V351"/>
		<path class="st7" d="M422.5,1077.79l-333-81.8C48.92,986.02,16,945.56,16,905.63V86.78c0-39.93,32.93-63.8,73.51-53.32l333,86
			c40.18,10.38,72.73,50.95,72.73,90.63v813.71C495.23,1063.49,462.69,1087.66,422.5,1077.79z"/>
		<path class="st7" d="M1041.84,481.46l-92.24-55.13l-92.24-55.13c-12.22-7.3-27.39,1.99-27.32,16.73l0.32,62.55H632.58
			c-14.13,0-25.58,11.45-25.58,25.58v46.1c0,14.13,11.45,25.58,25.58,25.58h198.27l0.32,62.75c0.07,14.74,15.34,23.86,27.49,16.43
			l91.68-56.15l91.68-56.15C1054.15,507.18,1054.06,488.76,1041.84,481.46z"/>
	</g>
</g>
</svg>
