<?xml version="1.0" encoding="utf-8"?>
<!-- Generator: Adobe Illustrator 28.1.0, SVG Export Plug-In . SVG Version: 6.00 Build 0)  -->
<svg version="1.1" id="Profile" xmlns="http://www.w3.org/2000/svg" xmlns:xlink="http://www.w3.org/1999/xlink" x="0px" y="0px"
	 viewBox="0 0 1080 1080" style="enable-background:new 0 0 1080 1080;" xml:space="preserve">
<style type="text/css">
	.st0{fill:#D3D3D3;}
	.st1{fill:#2D2D2D;}
</style>
<g id="Profile_Abu_tua_00000182506687390113123820000006579398798526482075_">
	<circle class="st0" cx="540" cy="539.41" r="539.5"/>
	<circle class="st1" cx="540" cy="375.59" r="202"/>
	<path class="st1" d="M123.15,883.09c98.95,120.28,248.94,196.99,416.85,196.99c168.91,0,319.68-77.63,418.61-199.15
		C894.92,712.42,732.1,592.59,541.28,592.59C349.66,592.59,186.26,713.45,123.15,883.09z"/>
</g>
<g id="Profile_Abu_tua_00000129190593691900091540000014349615622837666472_">
	<circle class="st1" cx="540" cy="539.41" r="539.5"/>
	<circle class="st0" cx="540" cy="375.59" r="202"/>
	<path class="st0" d="M123.15,883.09c98.95,120.28,248.94,196.99,416.85,196.99c168.91,0,319.68-77.63,418.61-199.15
		C894.92,712.42,732.1,592.59,541.28,592.59C349.66,592.59,186.26,713.45,123.15,883.09z"/>
</g>
</svg>
