<?xml version="1.0" encoding="UTF-8"?>
<svg id="Layer_6" data-name="Layer 6" xmlns="http://www.w3.org/2000/svg" viewBox="0 0 1080 1080">
  <defs>
    <style>
      .cls-1 {
        stroke-width: 0px;
      }
    </style>
  </defs>
  <path class="cls-1" d="M1073.16,350.47v524.83c-.99,2.37-2.33,4.67-2.93,7.14-3.69,15.32-9.8,29.56-19.19,42.24-25.18,34-59.22,49.48-101.31,49.4-130.12-.25-260.25-.09-390.37-.09-142.62,0-285.23-.08-427.85.08-23.34.03-45.66-3.65-65.76-15.94-39.28-24.04-58.86-59.43-58.88-105.44-.06-160.31-.03-320.63-.02-480.94,0-3.47.04-6.94.19-10.41,2.43-59.13,52.32-109.45,111.5-110.84,46.47-1.09,92.99-.38,139.48-.47,3.69,0,7.37,0,11.58,0,0-13.44.04-25.57,0-37.7-.25-59.6,46.03-106.54,105.61-106.4,110,.26,220,.09,330,.05,16.2,0,31.76,2.97,46.17,10.35,39.63,20.3,58.38,53.46,59,97.45.16,11.72.02,23.44.02,36.18,4.62,0,8.35,0,12.07,0,45.8.08,91.62-.68,137.4.46,55.45,1.38,101.01,41.49,111.27,95.91.27,1.45,1.33,2.76,2.02,4.13ZM539.87,872.42c145.4-1.2,259.57-117.14,260.42-259.81.85-143.11-116.39-260.56-260.12-261-142.6-.43-260.23,116.42-260.39,259.66-.15,142.56,113.69,259.69,260.09,261.15Z"/>
  <path class="cls-1" d="M368.07,612.17c-.35-93.98,76.62-171.49,170.93-172.14,94.89-.65,173.36,77.49,172.93,172.21-.42,94.59-77.02,171.22-171.44,171.53-94.74.3-172.08-76.66-172.43-171.6Z"/>
</svg>