<?xml version="1.0" encoding="UTF-8"?>
<svg id="Simpan" xmlns="http://www.w3.org/2000/svg" viewBox="0 0 1079 1080.18">
  <defs>
    <style>
      .cls-1 {
        stroke-width: 0px;
      }
    </style>
  </defs>
  <path class="cls-1" d="M740.32,36.51c24.1,0,46.82-.86,69.4.48,7.59.45,16.5,4.83,21.99,10.25,66.84,66.04,133.37,132.42,199.27,199.39,6.16,6.26,10.7,17.19,10.73,25.96.58,223.2.63,446.4.31,669.6-.08,55.86-44.14,99.38-99.91,100.19-21.99.32-43.99.05-67.64.05v-12.38c0-94.31.02-188.62,0-282.93-.02-64.49-42.49-107.06-106.84-107.07-152.32-.03-304.64-.02-456.96,0-64.41,0-106.96,42.55-106.98,106.94-.03,93.96,0,187.92,0,281.88,0,4.12,0,8.24,0,15.4-32.08-1.97-63.84-.66-94.19-6.57-41.88-8.15-71.75-48.57-73.37-91.2-.12-3.14-.13-6.29-.13-9.43,0-265.12-.02-530.23.01-795.35,0-50.45,29.15-89.9,75.44-101.83,7.7-1.99,15.82-3.25,23.75-3.28,65.68-.27,131.36-.16,197.04-.16,1.37,0,2.74.2,5.61.43v12.13c0,83.48-.03,166.96.01,250.44.02,44.59,27.92,72.29,72.77,72.31,85.59.03,171.18.03,256.78,0,45.35-.01,72.89-27.68,72.91-73.24.03-83.13,0-166.26,0-249.4v-12.62Z"/>
  <path class="cls-1" d="M807.4,1041.97H270.77c0-3.86,0-7.25,0-10.64,0-95-.01-189.99,0-284.99,0-26.52,12.66-39.22,39.09-39.22,153-.01,306-.02,459,0,25.55,0,38.52,13.06,38.53,38.78.03,95.35.01,190.69.01,286.04v10.02Z"/>
  <path class="cls-1" d="M672.77,37.18v266.98h-267.02V37.18h267.02Z"/>
</svg>