<?xml version="1.0" encoding="utf-8"?>
<!-- Generator: Adobe Illustrator 28.1.0, SVG Export Plug-In . SVG Version: 6.00 Build 0)  -->
<svg version="1.1" id="Layer_1" xmlns="http://www.w3.org/2000/svg" xmlns:xlink="http://www.w3.org/1999/xlink" x="0px" y="0px"
	 viewBox="0 0 1080 1080" style="enable-background:new 0 0 1080 1080;" xml:space="preserve">
<style type="text/css">
	.st0{fill:#2C5AA6;}
	.st1{font-family:'Swiss721BT-Black';}
	.st2{font-size:141.5161px;}
	.st3{letter-spacing:6;}
	.st4{font-size:67.4458px;}
	.st5{letter-spacing:2;}
	.st6{fill:#2D5AA5;}
	.st7{fill:#C94628;}
	.st8{fill:#FFE1BA;}
	.st9{fill:#E83926;}
</style>
<g id="Logo_PKM">
	<text transform="matrix(1 0 0 1 2.8948 970.015)" class="st0 st1 st2 st3">PKM CENTER</text>
	<g>
		<text transform="matrix(1 0 0 1 8.0755 1037.1927)" class="st0 st1 st4 st5">UNIVERSITAS ESA UNGGUL</text>
	</g>
	<g>
		<g>
			<path class="st6" d="M41.91,89.2l82.65-69.28c0.95-0.8,2.16-1.27,3.43-1.34l117.62-6.45c5.36-0.29,8.08,5.94,4.05,9.27
				l-88.46,73.04c-0.99,0.82-2.26,1.29-3.58,1.32l-111.82,2.7C40.56,98.58,37.99,92.49,41.91,89.2z"/>
			<polygon class="st6" points="80.46,101.27 97.67,140.36 180.08,145.75 237.96,88.64 221.28,48.77 161.82,98.45 			"/>
			<path class="st6" d="M243.71,26.31l17.73,41.07c0,0,1.04,36.43,12.52,33.89l6.65-2.17c0,0,8.34-5.27-16.95-32.45l-19.94-43.84
				l-1.05,1.96L243.71,26.31z"/>
			<ellipse class="st6" cx="215.54" cy="193.39" rx="56.33" ry="52.9"/>
			<path class="st6" d="M215.54,357.34c0,0-3.13-80.33,22.43-82.29c0,0-149.68-90.69-212.26,23.22
				C25.7,298.28,140.44,261.34,215.54,357.34z"/>
			<path class="st6" d="M573.03,630.32c-12.23,1.44-24.68,2.2-37.33,2.2c-161.86,0-293.02-123.18-293.02-275.19
				c0-151.98,131.16-275.16,293.02-275.16c12.65,0,25.11,0.76,37.33,2.2C428.87,101.6,317.37,217.22,317.37,357.32
				C317.37,497.45,428.87,613.08,573.03,630.32z"/>
		</g>
		<g>
			<path class="st6" d="M1035.14,158.48l-68.36-57.3c-0.78-0.66-1.78-1.05-2.83-1.11l-97.28-5.34c-4.43-0.24-6.68,4.91-3.35,7.66
				l73.16,60.41c0.82,0.68,1.87,1.06,2.96,1.09l92.48,2.23C1036.26,166.24,1038.38,161.2,1035.14,158.48z"/>
			<polygon class="st6" points="1003.25,168.46 989.02,200.79 920.87,205.25 872.99,158.02 886.79,125.04 935.96,166.13 			"/>
			<path class="st6" d="M868.24,106.47l-14.66,33.97c0,0-0.86,30.13-10.35,28.03l-5.5-1.8c0,0-6.9-4.35,14.02-26.84l16.49-36.25
				l0.87,1.62L868.24,106.47z"/>
			<ellipse class="st6" cx="891.54" cy="244.65" rx="46.58" ry="43.75"/>
			<path class="st6" d="M891.54,380.24c0,0,2.59-66.43-18.55-68.05c0,0,123.79-75.01,175.55,19.21
				C1048.54,331.4,953.65,300.85,891.54,380.24z"/>
			<path class="st6" d="M595.88,606.01c10.11,1.19,20.41,1.82,30.88,1.82c133.87,0,242.34-101.88,242.34-227.6
				c0-125.69-108.48-227.57-242.34-227.57c-10.46,0-20.76,0.63-30.88,1.82c119.22,14.26,211.44,109.88,211.44,225.75
				C807.32,496.13,715.1,591.75,595.88,606.01z"/>
		</g>
		<g>
			<rect x="520.96" y="211.31" class="st7" width="70.63" height="169.7"/>
			<polygon class="st8" points="569,437.32 545.6,437.32 520.96,381.01 591.59,381.01 			"/>
			<polygon points="545.6,437.32 556.27,464.32 569,437.32 			"/>
			<path class="st6" d="M545.6,482.06c0,0-33.75-56.59-129.77-72.89l-14.78,32.78C401.04,441.95,475.78,436.93,545.6,482.06z"/>
			<path class="st6" d="M567.36,482.06c0,0,33.75-56.59,129.77-72.89l14.78,32.78C711.92,441.95,637.17,436.93,567.36,482.06z"/>
			<path class="st6" d="M374.76,456.99c0,0,118.68-4.63,165.09,37.41c0,0,17.29,23.53,31.03,3.47
				c13.73-20.06,89.71-48.13,167.74-41.03l11.91,44.12c0,0-83.78-35.48-169.61,0.39c0,0-18.07,23.9-41.07,4.62
				c-23-19.28-108.83-19.28-169.61-9.25L374.76,456.99z"/>
		</g>
		<g>
			<path class="st9" d="M554.52,835.12c0,0-27.55-98.79,83.9-169.36s231.68-73.33,180.33-39.02
				c-51.34,34.31-127.3,81.36-127.52,121.35c0,0,108.92-55.28,161.43-69.39c52.5-14.11,95.08-47.04,147.68-123.49
				c52.6-76.45,75.14-52.92,68.88,0S913.93,857.46,554.52,835.12z"/>
			<path class="st9" d="M527.71,835.12c0,0,27.55-98.79-83.9-169.36s-231.68-73.33-180.33-39.02s127.3,81.36,127.52,121.35
				c0,0-108.92-55.28-161.43-69.39c-52.5-14.11-95.08-47.04-147.68-123.49s-75.14-52.92-68.88,0S168.3,857.46,527.71,835.12z"/>
		</g>
	</g>
</g>
</svg>
